<?xml version="1.0" encoding="utf-8"?>
<!-- Generator: Adobe Illustrator 16.0.0, SVG Export Plug-In . SVG Version: 6.00 Build 0)  -->
<!DOCTYPE svg PUBLIC "-//W3C//DTD SVG 1.1//EN" "http://www.w3.org/Graphics/SVG/1.1/DTD/svg11.dtd">
<svg version="1.1" id="Layer_1" xmlns="http://www.w3.org/2000/svg" xmlns:xlink="http://www.w3.org/1999/xlink" x="0px" y="0px"
	 width="64.063px" height="62.063px" viewBox="0 0 64.063 62.063" enable-background="new 0 0 64.063 62.063" xml:space="preserve">
<g id="XMLID_1683_">
	<g id="XMLID_1684_">
		<path id="XMLID_1689_" fill="#FFFFFF" d="M33.582,25.481c2.786,0,3.116,0.011,4.217,0.061c1.017,0.046,1.569,0.216,1.938,0.359
			c0.486,0.189,0.834,0.415,1.199,0.78s0.592,0.713,0.781,1.2c0.143,0.368,0.313,0.92,0.359,1.938
			c0.05,1.101,0.061,1.43,0.061,4.217c0,2.786-0.011,3.116-0.061,4.216c-0.047,1.018-0.217,1.57-0.359,1.938
			c-0.189,0.487-0.416,0.835-0.781,1.2c-0.365,0.364-0.713,0.591-1.199,0.78c-0.368,0.143-0.921,0.313-1.938,0.359
			c-1.101,0.051-1.43,0.061-4.217,0.061c-2.786,0-3.116-0.01-4.217-0.061c-1.017-0.047-1.569-0.217-1.938-0.359
			c-0.486-0.189-0.834-0.416-1.199-0.78c-0.365-0.365-0.592-0.713-0.781-1.2c-0.143-0.367-0.313-0.92-0.359-1.938
			c-0.049-1.1-0.061-1.43-0.061-4.216c0-2.787,0.012-3.116,0.061-4.217c0.047-1.018,0.217-1.57,0.359-1.938
			c0.189-0.487,0.416-0.834,0.781-1.2s0.713-0.591,1.199-0.78c0.368-0.143,0.921-0.313,1.938-0.359
			C30.466,25.492,30.796,25.481,33.582,25.481 M33.582,23.601c-2.834,0-3.189,0.012-4.303,0.063
			c-1.109,0.051-1.869,0.228-2.532,0.485c-0.687,0.267-1.269,0.623-1.849,1.203s-0.937,1.162-1.203,1.849
			c-0.258,0.664-0.434,1.422-0.484,2.533c-0.051,1.113-0.063,1.468-0.063,4.302c0,2.833,0.012,3.188,0.063,4.302
			c0.051,1.111,0.227,1.869,0.484,2.533c0.267,0.686,0.623,1.268,1.203,1.848s1.162,0.938,1.849,1.203
			c0.663,0.258,1.423,0.436,2.532,0.486c1.113,0.051,1.469,0.063,4.303,0.063s3.189-0.012,4.303-0.063
			c1.11-0.051,1.869-0.229,2.532-0.486c0.687-0.266,1.269-0.623,1.849-1.203s0.937-1.162,1.203-1.848
			c0.258-0.664,0.435-1.422,0.485-2.533c0.05-1.113,0.063-1.469,0.063-4.302c0-2.834-0.013-3.189-0.063-4.302
			c-0.051-1.111-0.228-1.869-0.485-2.533c-0.267-0.687-0.623-1.269-1.203-1.849s-1.162-0.937-1.849-1.203
			c-0.663-0.258-1.422-0.435-2.532-0.485C36.771,23.613,36.416,23.601,33.582,23.601"/>
		<path id="XMLID_1686_" fill="#FFFFFF" d="M33.582,28.677c-2.959,0-5.358,2.399-5.358,5.358c0,2.959,2.399,5.358,5.358,5.358
			s5.358-2.399,5.358-5.358C38.94,31.076,36.541,28.677,33.582,28.677 M33.582,37.513c-1.921,0-3.479-1.557-3.479-3.478
			c0-1.921,1.558-3.479,3.479-3.479s3.479,1.557,3.479,3.479C37.061,35.957,35.503,37.513,33.582,37.513"/>
		<path id="XMLID_1685_" fill="#FFFFFF" d="M40.404,28.465c0,0.691-0.561,1.252-1.252,1.252S37.9,29.157,37.9,28.465
			s0.561-1.252,1.252-1.252S40.404,27.774,40.404,28.465"/>
	</g>
</g>
</svg>
